<svg width="126" height="59" viewBox="0 0 126 59" fill="none" xmlns="http://www.w3.org/2000/svg">
<path d="M30.2741 0.360794C34.1093 0.360794 37.6249 0.928975 40.8209 2.06534C44.0525 3.16619 46.9644 4.62216 49.5567 6.43323C52.1846 8.2088 54.4928 10.0909 56.4814 12.0795C57.7599 13.2514 58.9317 14.4588 59.9971 15.7017C61.0979 16.9446 62.1278 18.152 63.0866 19.3239C63.9388 18.152 64.8444 16.9979 65.8032 15.8615C66.762 14.7251 67.9871 13.4645 69.4786 12.0795C72.4616 9.09659 76.137 6.39772 80.5049 3.98295C84.9083 1.56818 90.0397 0.360794 95.8991 0.360794C101.297 0.360794 106.197 1.67471 110.601 4.30255C115.04 6.89488 118.555 10.4105 121.148 14.8494C123.775 19.2528 125.089 24.1534 125.089 29.5511C125.089 33.6349 124.326 37.4702 122.799 41.0568C121.307 44.608 119.23 47.733 116.567 50.4318C113.903 53.0952 110.796 55.1903 107.245 56.7173C103.729 58.2088 99.9474 58.9545 95.8991 58.9545C91.9928 58.9545 88.4062 58.4041 85.1391 57.3033C81.9076 56.1669 78.9779 54.7287 76.3501 52.9886C73.7577 51.2131 71.4672 49.3665 69.4786 47.4489C68.2002 46.1705 67.0283 44.9098 65.963 43.6669C64.8976 42.3885 63.9388 41.1634 63.0866 39.9915C62.1278 41.1634 61.0979 42.3885 59.9971 43.6669C58.9317 44.9098 57.7599 46.1705 56.4814 47.4489C54.4928 49.3665 52.1846 51.2131 49.5567 52.9886C46.9644 54.7287 44.0525 56.1669 40.8209 57.3033C37.6249 58.4041 34.1093 58.9545 30.2741 58.9545C24.8053 58.9545 19.8515 57.6406 15.4126 55.0128C10.9736 52.3849 7.44025 48.8516 4.81241 44.4126C2.18457 39.9737 0.87065 35.0199 0.87065 29.5511C0.87065 25.5028 1.61639 21.7209 3.10787 18.2053C4.63485 14.6541 6.73002 11.5469 9.39338 8.88352C12.0922 6.22017 15.2172 4.14275 18.7684 2.65128C22.355 1.12429 26.1903 0.360794 30.2741 0.360794ZM13.0155 29.5511C13.0155 32.7472 13.779 35.6591 15.306 38.2869C16.8685 40.8793 18.9459 42.9567 21.5383 44.5192C24.1661 46.0462 27.078 46.8097 30.2741 46.8097C33.7897 46.8097 37.0035 46.0107 39.9154 44.4126C42.8273 42.8146 45.5084 40.8438 47.9587 38.5C49.5567 36.902 50.9594 35.3572 52.1668 33.8658C53.3742 32.3743 54.4573 30.9361 55.4161 29.5511C54.4573 28.2727 53.392 26.9055 52.2201 25.4496C51.0837 23.9581 49.6633 22.4134 47.9587 20.8153C45.615 18.4716 42.9516 16.5007 39.9687 14.9027C37.0212 13.3047 33.7897 12.5057 30.2741 12.5057C27.078 12.5057 24.1661 13.2869 21.5383 14.8494C18.9459 16.3764 16.8685 18.4361 15.306 21.0284C13.779 23.5852 13.0155 26.4261 13.0155 29.5511ZM112.945 29.5511C112.945 26.4261 112.163 23.5852 110.601 21.0284C109.074 18.4361 107.014 16.3764 104.422 14.8494C101.865 13.2869 99.0241 12.5057 95.8991 12.5057C93.4843 12.5057 91.2116 12.8785 89.0809 13.6243C86.9502 14.3345 84.9616 15.3288 83.115 16.6072C81.2684 17.8501 79.5638 19.2528 78.0013 20.8153C76.0837 22.6264 74.4857 24.3842 73.2073 26.0888C71.9644 27.7578 71.0766 28.9119 70.5439 29.5511C71.5028 30.9361 72.5858 32.3743 73.7932 33.8658C75.0006 35.3572 76.4033 36.902 78.0013 38.5C80.4516 40.8438 83.1327 42.8146 86.0447 44.4126C88.9921 46.0107 92.2769 46.8097 95.8991 46.8097C99.0241 46.8097 101.865 46.0462 104.422 44.5192C107.014 42.9567 109.074 40.8793 110.601 38.2869C112.163 35.6591 112.945 32.7472 112.945 29.5511Z" fill="url(#paint0_linear_120_52)"/>
<defs>
<linearGradient id="paint0_linear_120_52" x1="-79.5" y1="-8.5" x2="229" y2="63.5" gradientUnits="userSpaceOnUse">
<stop stop-color="#124EA7"/>
<stop offset="1" stop-color="#124EA7" stop-opacity="0"/>
</linearGradient>
</defs>
</svg>
