<svg width="140" height="161" viewBox="0 0 140 161" fill="none" xmlns="http://www.w3.org/2000/svg">
<path d="M37.2741 70.3608C41.1093 70.3608 44.6249 70.929 47.8209 72.0653C51.0525 73.1662 53.9644 74.6222 56.5567 76.4332C59.1846 78.2088 61.4928 80.0909 63.4814 82.0795C64.7599 83.2514 65.9317 84.4588 66.9971 85.7017C68.0979 86.9446 69.1278 88.152 70.0866 89.3239C70.9388 88.152 71.8444 86.9979 72.8032 85.8615C73.762 84.7251 74.9871 83.4645 76.4786 82.0795C79.4616 79.0966 83.137 76.3977 87.5049 73.983C91.9083 71.5682 97.0397 70.3608 102.899 70.3608C108.297 70.3608 113.197 71.6747 117.601 74.3026C122.04 76.8949 125.555 80.4105 128.148 84.8494C130.775 89.2528 132.089 94.1534 132.089 99.5511C132.089 103.635 131.326 107.47 129.799 111.057C128.307 114.608 126.23 117.733 123.567 120.432C120.903 123.095 117.796 125.19 114.245 126.717C110.729 128.209 106.947 128.955 102.899 128.955C98.9928 128.955 95.4062 128.404 92.1391 127.303C88.9076 126.167 85.9779 124.729 83.3501 122.989C80.7577 121.213 78.4672 119.366 76.4786 117.449C75.2002 116.17 74.0283 114.91 72.963 113.667C71.8976 112.388 70.9388 111.163 70.0866 109.991C69.1278 111.163 68.0979 112.388 66.9971 113.667C65.9317 114.91 64.7599 116.17 63.4814 117.449C61.4928 119.366 59.1846 121.213 56.5567 122.989C53.9644 124.729 51.0525 126.167 47.8209 127.303C44.6249 128.404 41.1093 128.955 37.2741 128.955C31.8053 128.955 26.8515 127.641 22.4126 125.013C17.9736 122.385 14.4403 118.852 11.8124 114.413C9.18457 109.974 7.87065 105.02 7.87065 99.5511C7.87065 95.5028 8.61639 91.7209 10.1079 88.2053C11.6349 84.6541 13.73 81.5469 16.3934 78.8835C19.0922 76.2202 22.2172 74.1428 25.7684 72.6513C29.355 71.1243 33.1903 70.3608 37.2741 70.3608ZM20.0155 99.5511C20.0155 102.747 20.779 105.659 22.306 108.287C23.8685 110.879 25.9459 112.957 28.5383 114.519C31.1661 116.046 34.078 116.81 37.2741 116.81C40.7897 116.81 44.0035 116.011 46.9154 114.413C49.8273 112.815 52.5084 110.844 54.9587 108.5C56.5567 106.902 57.9594 105.357 59.1668 103.866C60.3742 102.374 61.4573 100.936 62.4161 99.5511C61.4573 98.2727 60.392 96.9055 59.2201 95.4496C58.0837 93.9581 56.6633 92.4134 54.9587 90.8153C52.615 88.4716 49.9516 86.5007 46.9687 84.9027C44.0212 83.3047 40.7897 82.5057 37.2741 82.5057C34.078 82.5057 31.1661 83.2869 28.5383 84.8494C25.9459 86.3764 23.8685 88.4361 22.306 91.0284C20.779 93.5852 20.0155 96.4261 20.0155 99.5511ZM119.945 99.5511C119.945 96.4261 119.163 93.5852 117.601 91.0284C116.074 88.4361 114.014 86.3764 111.422 84.8494C108.865 83.2869 106.024 82.5057 102.899 82.5057C100.484 82.5057 98.2116 82.8785 96.0809 83.6243C93.9502 84.3345 91.9616 85.3288 90.115 86.6072C88.2684 87.8501 86.5638 89.2528 85.0013 90.8153C83.0837 92.6264 81.4857 94.3842 80.2073 96.0888C78.9644 97.7578 78.0766 98.9119 77.5439 99.5511C78.5028 100.936 79.5858 102.374 80.7932 103.866C82.0006 105.357 83.4033 106.902 85.0013 108.5C87.4516 110.844 90.1327 112.815 93.0447 114.413C95.9921 116.011 99.2769 116.81 102.899 116.81C106.024 116.81 108.865 116.046 111.422 114.519C114.014 112.957 116.074 110.879 117.601 108.287C119.163 105.659 119.945 102.747 119.945 99.5511Z" fill="url(#paint0_linear_125_67)"/>
<path d="M17.0417 138.273V155H12.9987V138.273H17.0417ZM36.1159 138.273V155H32.6855L26.0289 145.346H25.9227V155H21.8798V138.273H25.3592L31.9423 147.911H32.0811V138.273H36.1159ZM40.9581 155V138.273H52.3764V141.556H45.001V144.987H51.6495V148.278H45.001V155H40.9581ZM60.7551 138.273V155H56.7122V138.273H60.7551ZM79.8294 138.273V155H76.399L69.7424 145.346H69.6362V155H65.5932V138.273H69.0726L75.6557 147.911H75.7946V138.273H79.8294ZM88.7145 138.273V155H84.6715V138.273H88.7145ZM93.0054 141.556V138.273H107.144V141.556H102.071V155H98.0856V141.556H93.0054ZM110.585 138.273H115.102L118.638 145.272H118.785L122.322 138.273H126.838L120.721 149.413V155H116.702V149.413L110.585 138.273Z" fill="#124EA7"/>
<defs>
<linearGradient id="paint0_linear_125_67" x1="-72.5" y1="61.5" x2="236" y2="133.5" gradientUnits="userSpaceOnUse">
<stop stop-color="#124EA7"/>
<stop offset="1" stop-color="#124EA7" stop-opacity="0"/>
</linearGradient>
</defs>
</svg>
